<svg id="Layer_1" data-name="Layer 1" xmlns="http://www.w3.org/2000/svg" viewBox="0 0 484.21 484.21"><defs><style>.cls-1{fill:#fff;opacity:0.15;}</style></defs><path class="cls-1" d="M281.16,544.7l-4.45-4.45,243.7-243.69Q515.06,287,508.89,278L261.69,525.23l-4.45-4.45,248-248q-6.29-8.67-13.29-16.76L242.21,505.75l-4.44-4.44,250-250q-7.17-7.84-15-15l-250,250-4.45-4.45L468,232.12q-8.07-7-16.74-13.32l-248,248-4.45-4.45L446.06,215.12q-9-6.18-18.52-11.54L183.79,447.33l-4.45-4.44L421.78,200.45q-10-5.25-20.46-9.59l-237,237-4.45-4.45L394.94,188.34a238.51,238.51,0,0,0-22.7-7.35l-227.4,227.4-4.44-4.45L365.14,179.19a239.31,239.31,0,0,0-25.43-4.61L125.37,388.91l-4.45-4.45L331.68,173.71c-7.44-.69-15-1.06-22.59-1.06-2.17,0-4.34,0-6.5.09L105.9,369.44,101.45,365,293.26,173.18C166.93,181.34,67,286.37,67,414.76c0,133.71,108.4,242.11,242.11,242.11s242.1-108.4,242.1-242.11a241.07,241.07,0,0,0-27.65-112.44Z" transform="translate(-66.98 -172.65)"/></svg>