<svg id="Layer_1" data-name="Layer 1" xmlns="http://www.w3.org/2000/svg" viewBox="0 0 357.37 357.37"><defs><style>.cls-1{fill:#e2e2e2;opacity:0.05;}</style></defs><path class="cls-1" d="M425.9,428.59,437.48,417,560.19,539.72a177,177,0,0,0,32.84-12L459.88,394.61,471.46,383l136.6,136.61a178.53,178.53,0,0,0,25.83-19l-140-140,11.58-11.58L645.68,489.3a179.78,179.78,0,0,0,19.75-25l-137.6-137.6,11.58-11.58L674,449.68a177.12,177.12,0,0,0,13-31.82L561.81,292.68l11.58-11.58,118.1,118.1A178.66,178.66,0,1,0,540.84,543.53Z" transform="translate(-337.1 -187.92)"/></svg>