<svg id="Layer_1" data-name="Layer 1" xmlns="http://www.w3.org/2000/svg" xmlns:xlink="http://www.w3.org/1999/xlink" viewBox="0 0 1920.86 969.92"><defs><style>.cls-1,.cls-10,.cls-11,.cls-2,.cls-3,.cls-4,.cls-5,.cls-6,.cls-7,.cls-8,.cls-9{fill:none;stroke-miterlimit:10;}.cls-1{stroke:url(#linear-gradient);}.cls-2{stroke:url(#linear-gradient-2);}.cls-3{stroke:url(#linear-gradient-3);}.cls-4{stroke:url(#linear-gradient-4);}.cls-5{stroke:url(#linear-gradient-5);}.cls-6{stroke:url(#linear-gradient-6);}.cls-7{stroke:url(#linear-gradient-7);}.cls-8{stroke:url(#linear-gradient-8);}.cls-9{stroke:url(#linear-gradient-9);}.cls-10{stroke:url(#linear-gradient-10);}.cls-11{stroke:url(#linear-gradient-11);}</style><linearGradient id="linear-gradient" x1="-0.06" y1="266.65" x2="1920.43" y2="266.65" gradientUnits="userSpaceOnUse"><stop offset="0" stop-color="#231f20" stop-opacity="0.3"/><stop offset="0.5" stop-color="#bcbec0" stop-opacity="0.3"/><stop offset="1" stop-opacity="0.3"/></linearGradient><linearGradient id="linear-gradient-2" x1="-0.01" y1="311.45" x2="1920.4" y2="311.45" xlink:href="#linear-gradient"/><linearGradient id="linear-gradient-3" x1="-0.04" y1="358.52" x2="1920.37" y2="358.52" xlink:href="#linear-gradient"/><linearGradient id="linear-gradient-4" x1="-0.1" y1="405.68" x2="1920.33" y2="405.68" xlink:href="#linear-gradient"/><linearGradient id="linear-gradient-5" x1="-0.16" y1="452.84" x2="1920.28" y2="452.84" xlink:href="#linear-gradient"/><linearGradient id="linear-gradient-6" x1="-0.22" y1="500" x2="1920.22" y2="500" xlink:href="#linear-gradient"/><linearGradient id="linear-gradient-7" x1="-0.28" y1="547.16" x2="1920.16" y2="547.16" xlink:href="#linear-gradient"/><linearGradient id="linear-gradient-8" x1="-0.33" y1="594.32" x2="1920.1" y2="594.32" xlink:href="#linear-gradient"/><linearGradient id="linear-gradient-9" x1="-0.37" y1="641.48" x2="1920.04" y2="641.48" xlink:href="#linear-gradient"/><linearGradient id="linear-gradient-10" x1="-0.41" y1="688.48" x2="1920.02" y2="688.48" xlink:href="#linear-gradient"/><linearGradient id="linear-gradient-11" x1="-0.43" y1="733.06" x2="1920.06" y2="733.06" xlink:href="#linear-gradient"/></defs><path class="cls-1" d="M0,15.24c644.28,76.43,1391.49,1010,1920,122.46" transform="translate(0.43 -14.74)"/><path class="cls-2" d="M0,57.7C632.87,73.44,1378,1024,1920,282.92" transform="translate(0.43 -14.74)"/><path class="cls-3" d="M0,106.64c621.75-51,1365.34,912.5,1920,302.84" transform="translate(0.43 -14.74)"/><path class="cls-4" d="M0,162.94c610.76-124.48,1353.29,848.21,1920,357" transform="translate(0.43 -14.74)"/><path class="cls-5" d="M0,227.63C599.79,22.41,1341.7,1000.5,1920,616.36" transform="translate(0.43 -14.74)"/><path class="cls-6" d="M0,301.85c588.73-294,1330.44,685.76,1920,398.69" transform="translate(0.43 -14.74)"/><path class="cls-7" d="M0,386.89C577.45-4.92,1319.38,972.9,1920,774" transform="translate(0.43 -14.74)"/><path class="cls-8" d="M0,484.31C565.83-15.38,1308.42,956.76,1920,838" transform="translate(0.43 -14.74)"/><path class="cls-9" d="M0,595.88c553.73-619,1297.43,343.68,1920,297.86" transform="translate(0.43 -14.74)"/><path class="cls-10" d="M0,723.75C541-27.75,1286.28,921.67,1920,942.16" transform="translate(0.43 -14.74)"/><path class="cls-11" d="M1920,984.17C1274.85,903.42,527.46-28.67,0,870.49" transform="translate(0.43 -14.74)"/></svg>